<mxfile host="app.diagrams.net" modified="2021-06-04T07:46:24.201Z" agent="5.0 (Windows NT 10.0; Win64; x64) AppleWebKit/537.36 (KHTML, like Gecko) Chrome/90.0.4430.212 Safari/537.36" etag="BLKqfveYX4sj90VhVlt8" version="14.7.2" type="github">
  <diagram id="ue6BzmHTSjqkHSScc9lu" name="Page-1">
    <mxGraphModel dx="462" dy="705" grid="1" gridSize="10" guides="1" tooltips="1" connect="1" arrows="1" fold="1" page="1" pageScale="1" pageWidth="827" pageHeight="1169" math="1" shadow="0">
      <root>
        <mxCell id="0" />
        <mxCell id="1" parent="0" />
        <mxCell id="ZxLPydkkjcjrkMgKvBQq-3" style="edgeStyle=orthogonalEdgeStyle;rounded=0;orthogonalLoop=1;jettySize=auto;html=1;exitX=1;exitY=0.5;exitDx=0;exitDy=0;exitPerimeter=0;fontFamily=Times New Roman;fontSize=14;" edge="1" parent="1" source="ZxLPydkkjcjrkMgKvBQq-1" target="ZxLPydkkjcjrkMgKvBQq-2">
          <mxGeometry relative="1" as="geometry" />
        </mxCell>
        <mxCell id="ZxLPydkkjcjrkMgKvBQq-1" value="\([a],[b],[c]\)&lt;br style=&quot;font-size: 14px;&quot;&gt;\([f],[g],[h]\)" style="strokeWidth=2;html=1;shape=mxgraph.flowchart.start_1;whiteSpace=wrap;fontFamily=Times New Roman;fontSize=14;" vertex="1" parent="1">
          <mxGeometry x="50" y="340" width="100" height="60" as="geometry" />
        </mxCell>
        <mxCell id="ZxLPydkkjcjrkMgKvBQq-6" value="" style="edgeStyle=orthogonalEdgeStyle;rounded=0;orthogonalLoop=1;jettySize=auto;html=1;fontFamily=Times New Roman;fontSize=14;" edge="1" parent="1" source="ZxLPydkkjcjrkMgKvBQq-2" target="ZxLPydkkjcjrkMgKvBQq-5">
          <mxGeometry relative="1" as="geometry" />
        </mxCell>
        <mxCell id="ZxLPydkkjcjrkMgKvBQq-7" style="edgeStyle=orthogonalEdgeStyle;rounded=0;orthogonalLoop=1;jettySize=auto;html=1;exitX=1;exitY=0.5;exitDx=0;exitDy=0;entryX=0;entryY=0.5;entryDx=0;entryDy=0;fontFamily=Times New Roman;fontSize=14;" edge="1" parent="1" source="ZxLPydkkjcjrkMgKvBQq-2" target="ZxLPydkkjcjrkMgKvBQq-4">
          <mxGeometry relative="1" as="geometry" />
        </mxCell>
        <mxCell id="ZxLPydkkjcjrkMgKvBQq-2" value="生成 \(t_i\)&lt;br style=&quot;font-size: 14px;&quot;&gt;广播得到 \(t\)" style="rounded=0;whiteSpace=wrap;html=1;fontFamily=Times New Roman;fontSize=14;" vertex="1" parent="1">
          <mxGeometry x="180" y="340" width="120" height="60" as="geometry" />
        </mxCell>
        <mxCell id="ZxLPydkkjcjrkMgKvBQq-9" style="edgeStyle=orthogonalEdgeStyle;rounded=0;orthogonalLoop=1;jettySize=auto;html=1;exitX=1;exitY=0.5;exitDx=0;exitDy=0;fontFamily=Times New Roman;fontSize=14;" edge="1" parent="1" source="ZxLPydkkjcjrkMgKvBQq-4" target="ZxLPydkkjcjrkMgKvBQq-8">
          <mxGeometry relative="1" as="geometry" />
        </mxCell>
        <mxCell id="ZxLPydkkjcjrkMgKvBQq-4" value="部分打开 \(t[a]-[f]\)&lt;br style=&quot;font-size: 14px;&quot;&gt;得到 \(d\)" style="rounded=0;whiteSpace=wrap;html=1;fontFamily=Times New Roman;fontSize=14;" vertex="1" parent="1">
          <mxGeometry x="340" y="260" width="120" height="60" as="geometry" />
        </mxCell>
        <mxCell id="ZxLPydkkjcjrkMgKvBQq-10" style="edgeStyle=orthogonalEdgeStyle;rounded=0;orthogonalLoop=1;jettySize=auto;html=1;exitX=1;exitY=0.5;exitDx=0;exitDy=0;entryX=0;entryY=0.5;entryDx=0;entryDy=0;fontFamily=Times New Roman;fontSize=14;" edge="1" parent="1" source="ZxLPydkkjcjrkMgKvBQq-5" target="ZxLPydkkjcjrkMgKvBQq-8">
          <mxGeometry relative="1" as="geometry" />
        </mxCell>
        <mxCell id="ZxLPydkkjcjrkMgKvBQq-5" value="部分打开 \([b]-[g]\)&lt;br style=&quot;font-size: 14px;&quot;&gt;得到 \(e\)" style="rounded=0;whiteSpace=wrap;html=1;fontFamily=Times New Roman;fontSize=14;" vertex="1" parent="1">
          <mxGeometry x="340" y="390" width="120" height="60" as="geometry" />
        </mxCell>
        <mxCell id="ZxLPydkkjcjrkMgKvBQq-12" value="" style="edgeStyle=orthogonalEdgeStyle;rounded=0;orthogonalLoop=1;jettySize=auto;html=1;fontFamily=Times New Roman;fontSize=14;" edge="1" parent="1" source="ZxLPydkkjcjrkMgKvBQq-8" target="ZxLPydkkjcjrkMgKvBQq-11">
          <mxGeometry relative="1" as="geometry" />
        </mxCell>
        <mxCell id="ZxLPydkkjcjrkMgKvBQq-8" value="\(w=t[c]-([h]+d[g]+e[f]+de\)&lt;br style=&quot;font-size: 14px;&quot;&gt;广播得到\(w\)" style="rounded=0;whiteSpace=wrap;html=1;fontFamily=Times New Roman;fontSize=14;" vertex="1" parent="1">
          <mxGeometry x="500" y="320" width="210" height="70" as="geometry" />
        </mxCell>
        <mxCell id="ZxLPydkkjcjrkMgKvBQq-20" value="" style="edgeStyle=orthogonalEdgeStyle;rounded=0;orthogonalLoop=1;jettySize=auto;html=1;fontFamily=Times New Roman;fontSize=14;" edge="1" parent="1" source="ZxLPydkkjcjrkMgKvBQq-11" target="ZxLPydkkjcjrkMgKvBQq-16">
          <mxGeometry relative="1" as="geometry" />
        </mxCell>
        <mxCell id="ZxLPydkkjcjrkMgKvBQq-21" value="否" style="edgeLabel;html=1;align=center;verticalAlign=middle;resizable=0;points=[];fontFamily=Times New Roman;fontSize=14;" vertex="1" connectable="0" parent="ZxLPydkkjcjrkMgKvBQq-20">
          <mxGeometry x="0.4415" y="2" relative="1" as="geometry">
            <mxPoint x="1" as="offset" />
          </mxGeometry>
        </mxCell>
        <mxCell id="ZxLPydkkjcjrkMgKvBQq-23" style="edgeStyle=orthogonalEdgeStyle;rounded=0;orthogonalLoop=1;jettySize=auto;html=1;exitX=0;exitY=0.5;exitDx=0;exitDy=0;entryX=1;entryY=0.5;entryDx=0;entryDy=0;entryPerimeter=0;fontFamily=Times New Roman;fontSize=14;" edge="1" parent="1" source="ZxLPydkkjcjrkMgKvBQq-11" target="ZxLPydkkjcjrkMgKvBQq-13">
          <mxGeometry relative="1" as="geometry" />
        </mxCell>
        <mxCell id="ZxLPydkkjcjrkMgKvBQq-24" value="是" style="edgeLabel;html=1;align=center;verticalAlign=middle;resizable=0;points=[];fontFamily=Times New Roman;fontSize=14;" vertex="1" connectable="0" parent="ZxLPydkkjcjrkMgKvBQq-23">
          <mxGeometry x="-0.1458" y="1" relative="1" as="geometry">
            <mxPoint as="offset" />
          </mxGeometry>
        </mxCell>
        <mxCell id="ZxLPydkkjcjrkMgKvBQq-11" value="\(w=0?\)" style="rhombus;whiteSpace=wrap;html=1;rounded=0;fontFamily=Times New Roman;fontSize=14;" vertex="1" parent="1">
          <mxGeometry x="532.5" y="520" width="145" height="80" as="geometry" />
        </mxCell>
        <mxCell id="ZxLPydkkjcjrkMgKvBQq-13" value="通过验证&lt;br style=&quot;font-size: 14px;&quot;&gt;\(a\cdot b=c\)&lt;br style=&quot;font-size: 14px;&quot;&gt;\(g\cdot f=h\)" style="strokeWidth=2;html=1;shape=mxgraph.flowchart.terminator;whiteSpace=wrap;fontFamily=Times New Roman;fontSize=14;" vertex="1" parent="1">
          <mxGeometry x="310" y="475" width="120" height="65" as="geometry" />
        </mxCell>
        <mxCell id="ZxLPydkkjcjrkMgKvBQq-16" value="验证失败&lt;br style=&quot;font-size: 14px;&quot;&gt;停止协议" style="strokeWidth=2;html=1;shape=mxgraph.flowchart.terminator;whiteSpace=wrap;fontFamily=Times New Roman;fontSize=14;" vertex="1" parent="1">
          <mxGeometry x="310" y="560" width="116.67" height="70" as="geometry" />
        </mxCell>
      </root>
    </mxGraphModel>
  </diagram>
</mxfile>
